Coordinates
version=1
nRows=7
nColumns=40
inDegrees=yes

Units are S.I. units (second, meters, Newtons, ...)
Angles are in degrees.

endheader
time	pelvis_tilt	pelvis_list	pelvis_rotation	pelvis_tx	pelvis_ty	pelvis_tz	hip_flexion_r	hip_adduction_r	hip_rotation_r	knee_angle_r	knee_angle_r_beta	ankle_angle_r	subtalar_angle_r	mtp_angle_r	hip_flexion_l	hip_adduction_l	hip_rotation_l	knee_angle_l	knee_angle_l_beta	ankle_angle_l	subtalar_angle_l	mtp_angle_l	lumbar_extension	lumbar_bending	lumbar_rotation	arm_flex_r	arm_add_r	arm_rot_r	elbow_flex_r	pro_sup_r	wrist_flex_r	wrist_dev_r	arm_flex_l	arm_add_l	arm_rot_l	elbow_flex_l	pro_sup_l	wrist_flex_l	wrist_dev_l
      0.50000000	     -2.05587338	      8.05283412	     -6.47361465	     -0.36121602	      0.95481180	      1.38369994	     17.15736052	    -21.53633785	    -10.28344973	    -56.93029629	     -0.99362111	     -0.39289339	    -17.03397351	     13.58208964	      8.91807931	     -8.41257946	     18.43635172	    -10.95237542	     -0.19115501	      1.06274523	      5.55892495	      0.35141592	     -1.24152601	    -10.08310778	      2.93217640	      5.33668226	    -13.30150242	    -13.41264539	     18.27090874	     89.95437384	      0.00000000	      0.00000000	      4.55472234	     11.53018935	      7.71028896	     19.80695422	     89.95437384	      0.00000000	      0.00000000
      0.51000000	     -2.15111894	      7.78692597	     -6.15178267	     -0.35372434	      0.95550601	      1.38204286	     18.24186205	    -21.18010642	    -10.89443186	    -56.58375575	     -0.98757284	     -0.07747904	    -17.10063933	     13.49771252	      8.33417469	     -8.31724328	     18.58656486	    -10.68729478	     -0.18652848	      1.29020583	      5.39496815	      0.29818297	     -1.36559117	     -9.73501104	      2.22723540	      4.96068613	    -13.36739756	    -13.44116519	     18.11637153	     89.95437384	      0.00000000	      0.00000000	      5.64560012	     11.87026857	      7.54288001	     20.65991316	     89.95437384	      0.00000000	      0.00000000
      0.52000000	     -1.73971456	      7.00717464	     -5.35243193	     -0.34577139	      0.95722457	      1.38037955	     18.06155805	    -20.32926228	    -12.32049139	    -55.58035282	     -0.97006016	      0.33258346	    -17.51772125	     14.40362233	      7.00900816	     -7.76724996	     17.69876936	    -10.26637681	     -0.17918208	      1.47762924	      4.54299836	      0.14155304	     -2.17794342	     -8.92274218	      1.09470721	      4.64574735	    -13.37976255	    -14.05701053	     17.89660198	     89.95437384	      0.00000000	      0.00000000	      6.46713209	     12.45767590	      6.21399283	     22.24671791	     89.95437384	      0.00000000	      0.00000000
      0.53000000	     -1.94647155	      6.81835109	     -5.02652004	     -0.33855275	      0.95746818	      1.37876344	     19.27900447	    -19.99467603	    -12.84707915	    -54.98142685	     -0.95960693	      0.61854898	    -17.37069999	     14.27492845	      6.64313910	     -7.71844838	     17.79049846	    -10.10322757	     -0.17633459	      1.69284255	      4.40267084	      0.08638103	     -2.15449565	     -8.63404337	      0.42809937	      4.23318338	    -13.44691175	    -14.09294163	     17.85786789	     89.95437384	      0.00000000	      0.00000000	      7.54227512	     12.79873408	      6.11203982	     23.07493913	     89.95437384	      0.00000000	      0.00000000
      0.54000000	     -1.88068120	      6.17806878	     -4.18929954	     -0.33125166	      0.95835285	      1.37700766	     19.60395319	    -19.28334874	    -14.21051468	    -53.77334969	     -0.93852200	      1.05888621	    -17.37968533	     15.36422352	      5.88852192	     -7.24640194	     16.70873503	     -9.91954417	     -0.17312871	      1.96297249	      4.04841891	     -0.22192910	     -2.60260564	     -7.90785104	     -0.58909995	      3.88410476	    -13.36811245	    -15.40171434	     17.71882842	     89.95437384	      0.00000000	      0.00000000	      8.55399712	     13.35777244	      4.92458970	     24.30205369	     89.95437384	      0.00000000	      0.00000000
      0.55000000	     -2.17461908	      6.05699593	     -3.85656328	     -0.32403464	      0.95824905	      1.37566377	     20.85467933	    -18.99166973	    -14.74320369	    -52.84936333	     -0.92239540	      1.28849577	    -17.07165416	     15.22116322	      5.63511148	     -7.24368152	     16.72790264	     -9.79332091	     -0.17092569	      2.19263489	      3.92191154	     -0.28675576	     -2.43504572	     -7.71068545	     -1.23507375	      3.45007193	    -13.40859344	    -15.42869730	     17.70661646	     89.95437384	      0.00000000	      0.00000000	      9.58515820	     13.76543141	      4.82483901	     25.15117738	     89.95437384	      0.00000000	      0.00000000
      0.56000000	     -2.32667792	      5.39667044	     -2.98078098	     -0.31649804	      0.95856912	      1.37423307	     21.37351648	    -18.24707374	    -16.11595911	    -51.46369296	     -0.89821089	      1.54229646	    -16.74086974	     15.28704357	      5.12300395	     -6.67347071	     15.60916668	     -9.66271409	     -0.16864618	      2.51077714	      3.48619010	     -0.49993505	     -2.52925029	     -6.95330021	     -2.32878067	      2.99708954	    -13.33345809	    -16.33233378	     17.72406065	     89.95437384	      0.00000000	      0.00000000	     10.44588934	     14.33947696	      4.06317695	     26.31216711	     89.95437384	      0.00000000	      0.00000000
